<svg xmlns="http://www.w3.org/2000/svg" viewBox="0 0 200 200">
  <rect width="200" height="200" rx="24" fill="#BCE8DC"/>
  <!-- moon pixels (#1F2024) -->
  <rect x="46" y="22" width="12" height="12" fill="#1F2024"/>
  <rect x="58" y="22" width="12" height="12" fill="#1F2024"/>
  <rect x="70" y="22" width="12" height="12" fill="#1F2024"/>
  <rect x="82" y="22" width="12" height="12" fill="#1F2024"/>
  <rect x="94" y="22" width="12" height="12" fill="#1F2024"/>
  <rect x="106" y="22" width="12" height="12" fill="#1F2024"/>
  <rect x="118" y="22" width="12" height="12" fill="#1F2024"/>
  <rect x="34" y="34" width="12" height="12" fill="#1F2024"/>
  <rect x="46" y="34" width="12" height="12" fill="#1F2024"/>
  <rect x="58" y="34" width="12" height="12" fill="#1F2024"/>
  <rect x="70" y="34" width="12" height="12" fill="#1F2024"/>
  <rect x="82" y="34" width="12" height="12" fill="#1F2024"/>
  <rect x="94" y="34" width="12" height="12" fill="#1F2024"/>
  <rect x="22" y="46" width="12" height="12" fill="#1F2024"/>
  <rect x="34" y="46" width="12" height="12" fill="#1F2024"/>
  <rect x="46" y="46" width="12" height="12" fill="#1F2024"/>
  <rect x="58" y="46" width="12" height="12" fill="#1F2024"/>
  <rect x="70" y="46" width="12" height="12" fill="#1F2024"/>
  <rect x="10" y="58" width="12" height="12" fill="#1F2024"/>
  <rect x="22" y="58" width="12" height="12" fill="#1F2024"/>
  <rect x="34" y="58" width="12" height="12" fill="#1F2024"/>
  <rect x="46" y="58" width="12" height="12" fill="#1F2024"/>
  <rect x="58" y="58" width="12" height="12" fill="#1F2024"/>
  <rect x="10" y="70" width="12" height="12" fill="#1F2024"/>
  <rect x="22" y="70" width="12" height="12" fill="#1F2024"/>
  <rect x="34" y="70" width="12" height="12" fill="#1F2024"/>
  <rect x="46" y="70" width="12" height="12" fill="#1F2024"/>
  <rect x="58" y="70" width="12" height="12" fill="#1F2024"/>
  <rect x="10" y="82" width="12" height="12" fill="#1F2024"/>
  <rect x="22" y="82" width="12" height="12" fill="#1F2024"/>
  <rect x="34" y="82" width="12" height="12" fill="#1F2024"/>
  <rect x="46" y="82" width="12" height="12" fill="#1F2024"/>
  <rect x="10" y="94" width="12" height="12" fill="#1F2024"/>
  <rect x="22" y="94" width="12" height="12" fill="#1F2024"/>
  <rect x="34" y="94" width="12" height="12" fill="#1F2024"/>
  <rect x="46" y="94" width="12" height="12" fill="#1F2024"/>
  <rect x="10" y="106" width="12" height="12" fill="#1F2024"/>
  <rect x="22" y="106" width="12" height="12" fill="#1F2024"/>
  <rect x="34" y="106" width="12" height="12" fill="#1F2024"/>
  <rect x="46" y="106" width="12" height="12" fill="#1F2024"/>
  <rect x="10" y="118" width="12" height="12" fill="#1F2024"/>
  <rect x="22" y="118" width="12" height="12" fill="#1F2024"/>
  <rect x="34" y="118" width="12" height="12" fill="#1F2024"/>
  <rect x="46" y="118" width="12" height="12" fill="#1F2024"/>
  <rect x="58" y="118" width="12" height="12" fill="#1F2024"/>
  <rect x="10" y="130" width="12" height="12" fill="#1F2024"/>
  <rect x="22" y="130" width="12" height="12" fill="#1F2024"/>
  <rect x="34" y="130" width="12" height="12" fill="#1F2024"/>
  <rect x="46" y="130" width="12" height="12" fill="#1F2024"/>
  <rect x="58" y="130" width="12" height="12" fill="#1F2024"/>
  <rect x="22" y="142" width="12" height="12" fill="#1F2024"/>
  <rect x="34" y="142" width="12" height="12" fill="#1F2024"/>
  <rect x="46" y="142" width="12" height="12" fill="#1F2024"/>
  <rect x="58" y="142" width="12" height="12" fill="#1F2024"/>
  <rect x="70" y="142" width="12" height="12" fill="#1F2024"/>
  <rect x="34" y="154" width="12" height="12" fill="#1F2024"/>
  <rect x="46" y="154" width="12" height="12" fill="#1F2024"/>
  <rect x="58" y="154" width="12" height="12" fill="#1F2024"/>
  <rect x="70" y="154" width="12" height="12" fill="#1F2024"/>
  <rect x="82" y="154" width="12" height="12" fill="#1F2024"/>
  <rect x="94" y="154" width="12" height="12" fill="#1F2024"/>
  <rect x="46" y="166" width="12" height="12" fill="#1F2024"/>
  <rect x="58" y="166" width="12" height="12" fill="#1F2024"/>
  <rect x="70" y="166" width="12" height="12" fill="#1F2024"/>
  <rect x="82" y="166" width="12" height="12" fill="#1F2024"/>
  <rect x="94" y="166" width="12" height="12" fill="#1F2024"/>
  <rect x="106" y="166" width="12" height="12" fill="#1F2024"/>
  <rect x="118" y="166" width="12" height="12" fill="#1F2024"/>
  <!-- stars (#1F2024) -->
  <rect x="142" y="22" width="24" height="24" fill="#1F2024"/>
  <rect x="166" y="46" width="18" height="18" fill="#1F2024"/>
  <rect x="142" y="70" width="12" height="12" fill="#1F2024"/>
</svg>
